<svg width="60" height="60" viewBox="0 0 60 60" fill="none" xmlns="http://www.w3.org/2000/svg">
<path d="M30 52.5C23.7083 52.5 18.3858 50.3225 14.0325 45.9675C9.67917 41.6125 7.50167 36.29 7.5 30C7.5 24.25 9.375 19.26 13.125 15.03C16.875 10.8 21.6667 8.33166 27.5 7.625C28.0417 7.54166 28.5208 7.615 28.9375 7.845C29.3542 8.075 29.6875 8.37666 29.9375 8.75C30.1875 9.12333 30.3233 9.56083 30.345 10.0625C30.3667 10.5642 30.21 11.0433 29.875 11.5C29.1667 12.5833 28.635 13.7292 28.28 14.9375C27.925 16.1458 27.7483 17.4167 27.75 18.75C27.75 22.5 29.0625 25.6875 31.6875 28.3125C34.3125 30.9375 37.5 32.25 41.25 32.25C42.5417 32.25 43.8233 32.0625 45.095 31.6875C46.3667 31.3125 47.5017 30.7917 48.5 30.125C48.9583 29.8333 49.4275 29.6983 49.9075 29.72C50.3875 29.7417 50.8142 29.8558 51.1875 30.0625C51.6042 30.2708 51.9275 30.5833 52.1575 31C52.3875 31.4167 52.46 31.9167 52.375 32.5C51.7917 38.25 49.3442 43.0208 45.0325 46.8125C40.7208 50.6042 35.71 52.5 30 52.5ZM30 47.5C33.6667 47.5 36.9583 46.4892 39.875 44.4675C42.7917 42.4458 44.9167 39.8108 46.25 36.5625C45.4167 36.7708 44.5833 36.9375 43.75 37.0625C42.9167 37.1875 42.0833 37.25 41.25 37.25C36.125 37.25 31.76 35.4475 28.155 31.8425C24.55 28.2375 22.7483 23.8733 22.75 18.75C22.75 17.9167 22.8125 17.0833 22.9375 16.25C23.0625 15.4167 23.2292 14.5833 23.4375 13.75C20.1875 15.0833 17.5517 17.2083 15.53 20.125C13.5083 23.0417 12.4983 26.3333 12.5 30C12.5 34.8333 14.2083 38.9583 17.625 42.375C21.0417 45.7917 25.1667 47.5 30 47.5Z" fill="#195905"/>
</svg>
