<svg width="25" height="25" viewBox="0 0 25 25" fill="none" xmlns="http://www.w3.org/2000/svg">
<path d="M12.3232 9.375L15.6253 12.6667V12.5C15.6253 11.6712 15.2961 10.8763 14.71 10.2903C14.124 9.70424 13.3291 9.375 12.5003 9.375H12.3232ZM7.84408 10.2083L9.45866 11.8229C9.40658 12.0417 9.37533 12.2604 9.37533 12.5C9.37533 13.3288 9.70456 14.1237 10.2906 14.7097C10.8767 15.2958 11.6715 15.625 12.5003 15.625C12.7295 15.625 12.9587 15.5937 13.1774 15.5417L14.792 17.1562C14.0941 17.5 13.3232 17.7083 12.5003 17.7083C11.119 17.7083 9.79423 17.1596 8.81748 16.1828C7.84073 15.2061 7.29199 13.8813 7.29199 12.5C7.29199 11.6771 7.50033 10.9062 7.84408 10.2083ZM2.08366 4.44792L4.45866 6.82292L4.92741 7.29167C3.20866 8.64583 1.85449 10.4167 1.04199 12.5C2.84408 17.0729 7.29199 20.3125 12.5003 20.3125C14.1149 20.3125 15.6566 20 17.0628 19.4375L17.5107 19.875L20.5524 22.9167L21.8753 21.5937L3.40658 3.125M12.5003 7.29167C13.8817 7.29167 15.2064 7.8404 16.1832 8.81715C17.1599 9.7939 17.7087 11.1187 17.7087 12.5C17.7087 13.1667 17.5732 13.8125 17.3337 14.3958L20.3857 17.4479C21.9482 16.1458 23.1982 14.4375 23.9587 12.5C22.1566 7.92708 17.7087 4.6875 12.5003 4.6875C11.042 4.6875 9.64616 4.94792 8.33366 5.41667L10.5941 7.65625C11.1878 7.42708 11.8232 7.29167 12.5003 7.29167Z" fill="#0C3200"/>
</svg>
